<?xml version="1.0" encoding="utf-8"?><svg xmlns="http://www.w3.org/2000/svg" xmlns:xlink="http://www.w3.org/1999/xlink"><symbol viewBox="0 0 14 14" id="icons--border_clear" xmlns="http://www.w3.org/2000/svg"><g fill="none" fill-rule="evenodd"><path d="M-2-2h18v18H-2z"/><path fill="#0078A8" fill-rule="nonzero" d="M3.25 1.75h1.5V.25h-1.5v1.5zm0 6h1.5v-1.5h-1.5v1.5zm0 6h1.5v-1.5h-1.5v1.5zm3-3h1.5v-1.5h-1.5v1.5zm0 3h1.5v-1.5h-1.5v1.5zm-6 0h1.5v-1.5H.25v1.5zm0-3h1.5v-1.5H.25v1.5zm0-3h1.5v-1.5H.25v1.5zm0-3h1.5v-1.5H.25v1.5zm0-3h1.5V.25H.25v1.5zm6 6h1.5v-1.5h-1.5v1.5zm6 3h1.5v-1.5h-1.5v1.5zm0-3h1.5v-1.5h-1.5v1.5zm0 6h1.5v-1.5h-1.5v1.5zm0-9h1.5v-1.5h-1.5v1.5zm-6 0h1.5v-1.5h-1.5v1.5zm6-4.5v1.5h1.5V.25h-1.5zm-6 1.5h1.5V.25h-1.5v1.5zm3 12h1.5v-1.5h-1.5v1.5zm0-6h1.5v-1.5h-1.5v1.5zm0-6h1.5V.25h-1.5v1.5z"/></g></symbol><symbol viewBox="0 0 14 14" id="icons--border_outer" xmlns="http://www.w3.org/2000/svg"><g fill="none" fill-rule="evenodd"><path d="M-2-2h18v18H-2z"/><path fill="#0078A8" fill-rule="nonzero" d="M7.75 3.25h-1.5v1.5h1.5v-1.5zm0 3h-1.5v1.5h1.5v-1.5zm3 0h-1.5v1.5h1.5v-1.5zM.25.25v13.5h13.5V.25H.25zm12 12H1.75V1.75h10.5v10.5zm-4.5-3h-1.5v1.5h1.5v-1.5zm-3-3h-1.5v1.5h1.5v-1.5z"/></g></symbol><symbol viewBox="0 0 18 18" id="icons--crop_rotate" xmlns="http://www.w3.org/2000/svg"><g fill="none" fill-rule="evenodd"><path d="M0 0h18v18H0z"/><path fill="#0078A8" fill-rule="nonzero" d="M5.603 16.117C3.15 14.947 1.394 12.57 1.125 9.75H0C.383 14.37 4.245 18 8.963 18c.172 0 .33-.015.495-.023L6.6 15.113l-.997 1.005zM9.037 0c-.172 0-.33.015-.495.03L11.4 2.888l.998-.998a7.876 7.876 0 0 1 4.477 6.36H18C17.617 3.63 13.755 0 9.037 0zM12 10.5h1.5V6A1.5 1.5 0 0 0 12 4.5H7.5V6H12v4.5zM6 12V3H4.5v1.5H3V6h1.5v6A1.5 1.5 0 0 0 6 13.5h6V15h1.5v-1.5H15V12H6z"/></g></symbol><symbol viewBox="0 0 12 14" id="icons--delete_forever" xmlns="http://www.w3.org/2000/svg"><g fill="none" fill-rule="evenodd"><path d="M-3-2h18v18H-3z"/><path fill="#c10d0d" fill-rule="nonzero" d="M1.5 12.25c0 .825.675 1.5 1.5 1.5h6c.825 0 1.5-.675 1.5-1.5v-9h-9v9zm1.845-5.34l1.057-1.058L6 7.442l1.59-1.59L8.648 6.91 7.058 8.5l1.59 1.59-1.058 1.058L6 9.558l-1.59 1.59-1.058-1.058 1.59-1.59-1.597-1.59zM8.625 1l-.75-.75h-3.75l-.75.75H.75v1.5h10.5V1H8.625z"/><path d="M-3-2h18v18H-3z"/></g></symbol><symbol viewBox="0 0 16 16" id="icons--explore" xmlns="http://www.w3.org/2000/svg"><g fill="none" fill-rule="evenodd"><path d="M-1-1h18v18H-1z"/><path fill="#0078A8" fill-rule="nonzero" d="M8 .5C3.86.5.5 3.86.5 8c0 4.14 3.36 7.5 7.5 7.5 4.14 0 7.5-3.36 7.5-7.5C15.5 3.86 12.14.5 8 .5zM8 14c-3.308 0-6-2.693-6-6 0-3.308 2.692-6 6-6 3.307 0 6 2.692 6 6 0 3.307-2.693 6-6 6zm-4.125-1.875l5.633-2.617 2.617-5.633-5.633 2.617-2.617 5.633zM8 7.175c.457 0 .825.368.825.825A.823.823 0 0 1 8 8.825.823.823 0 0 1 7.175 8c0-.457.368-.825.825-.825z"/></g></symbol><symbol viewBox="0 0 14 14" id="icons--flip_to_back" xmlns="http://www.w3.org/2000/svg"><g fill="none" fill-rule="evenodd"><path d="M-2-2h18v18H-2z"/><path fill="#0078A8" fill-rule="nonzero" d="M4.75 3.25h-1.5v1.5h1.5v-1.5zm0 3h-1.5v1.5h1.5v-1.5zm0-6a1.5 1.5 0 0 0-1.5 1.5h1.5V.25zm3 9h-1.5v1.5h1.5v-1.5zm4.5-9v1.5h1.5c0-.825-.675-1.5-1.5-1.5zm-4.5 0h-1.5v1.5h1.5V.25zm-3 10.5v-1.5h-1.5a1.5 1.5 0 0 0 1.5 1.5zm7.5-3h1.5v-1.5h-1.5v1.5zm0-3h1.5v-1.5h-1.5v1.5zm0 6c.825 0 1.5-.675 1.5-1.5h-1.5v1.5zm-10.5-7.5H.25v9a1.5 1.5 0 0 0 1.5 1.5h9v-1.5h-9v-9zm7.5-1.5h1.5V.25h-1.5v1.5zm0 9h1.5v-1.5h-1.5v1.5z"/></g></symbol><symbol viewBox="0 0 14 14" id="icons--flip_to_front" xmlns="http://www.w3.org/2000/svg"><g fill="none" fill-rule="evenodd"><path d="M-2-2h18v18H-2z"/><path fill="#0078A8" fill-rule="nonzero" d="M.25 7.75h1.5v-1.5H.25v1.5zm0 3h1.5v-1.5H.25v1.5zm1.5 3v-1.5H.25a1.5 1.5 0 0 0 1.5 1.5zm-1.5-9h1.5v-1.5H.25v1.5zm9 9h1.5v-1.5h-1.5v1.5zm3-13.5h-7.5a1.5 1.5 0 0 0-1.5 1.5v7.5a1.5 1.5 0 0 0 1.5 1.5h7.5c.825 0 1.5-.675 1.5-1.5v-7.5c0-.825-.675-1.5-1.5-1.5zm0 9h-7.5v-7.5h7.5v7.5zm-6 4.5h1.5v-1.5h-1.5v1.5zm-3 0h1.5v-1.5h-1.5v1.5z"/></g></symbol><symbol viewBox="0 0 12 13" id="icons--get_app" xmlns="http://www.w3.org/2000/svg"><g fill="none" fill-rule="evenodd"><path fill="#0078A8" fill-rule="nonzero" d="M11.25 4.75h-3V.25h-4.5v4.5h-3L6 10l5.25-5.25zM.75 11.5V13h10.5v-1.5H.75z"/><path d="M-3-2h18v18H-3z"/></g></symbol><symbol viewBox="0 0 12 17" id="icons--lock" xmlns="http://www.w3.org/2000/svg"><g fill="none" fill-rule="evenodd"><path d="M-3 0h18v18H-3z"/><path opacity=".87" d="M-3 0h18v18H-3z"/><path fill="#0078A8" fill-rule="nonzero" d="M10.5 6h-.75V4.5C9.75 2.43 8.07.75 6 .75 3.93.75 2.25 2.43 2.25 4.5V6H1.5C.675 6 0 6.675 0 7.5V15c0 .825.675 1.5 1.5 1.5h9c.825 0 1.5-.675 1.5-1.5V7.5c0-.825-.675-1.5-1.5-1.5zM3.75 4.5A2.247 2.247 0 0 1 6 2.25 2.247 2.247 0 0 1 8.25 4.5V6h-4.5V4.5zM10.5 15h-9V7.5h9V15zM6 12.75c.825 0 1.5-.675 1.5-1.5s-.675-1.5-1.5-1.5-1.5.675-1.5 1.5.675 1.5 1.5 1.5z"/></g></symbol><symbol viewBox="0 0 12 16" id="icons--opacity" xmlns="http://www.w3.org/2000/svg"><g fill="none" fill-rule="evenodd"><path d="M15-1H-3v18h18V-1zm0 0H-3v18h18V-1zM-3 17h18V-1H-3v18z"/><path fill="#0078A8" fill-rule="nonzero" d="M10.245 5L6 .763 1.755 5A6.015 6.015 0 0 0 0 9.23c0 1.5.585 3.082 1.755 4.252a5.993 5.993 0 0 0 8.49 0A6.066 6.066 0 0 0 12 9.23c0-1.5-.585-3.06-1.755-4.23zM1.5 9.5c.008-1.5.465-2.453 1.32-3.3L6 2.952l3.18 3.285c.855.84 1.313 1.763 1.32 3.263h-9z"/></g></symbol><symbol viewBox="0 0 18 14" id="icons--restore" xmlns="http://www.w3.org/2000/svg"><g fill="none"><path fill="#0078A8" d="M5.25 9.314l3.383 3.918a1.475 1.475 0 0 0 2.11.137c.322-.29.507-.706.507-1.145v-2.91l3.383 3.918a1.475 1.475 0 0 0 2.11.137c.323-.29.507-.706.507-1.145V1.775c0-.842-.67-1.525-1.495-1.525-.432.001-.842.19-1.123.518L11.25 4.686v-2.91C11.25.932 10.58.25 9.755.25c-.432.001-.842.19-1.123.518L5.25 4.686V1.75a1.5 1.5 0 0 0-1.5-1.5h-1.5a1.5 1.5 0 0 0-1.5 1.5v10.5a1.5 1.5 0 0 0 1.5 1.5h1.5a1.5 1.5 0 0 0 1.5-1.5V9.314zm0-2.32l4.505-5.219v10.45L5.25 7.004v-.01zm6 0l4.505-5.219v10.45l-4.505-5.22v-.01zm-9 5.256V1.75h1.5v10.5h-1.5z"/><path d="M0-2h18v18H0z"/></g></symbol><symbol viewBox="0 0 16 18" id="icons--transform" xmlns="http://www.w3.org/2000/svg"><g fill="none" fill-rule="evenodd"><path d="M-1 0h18v18H-1z"/><path fill="#0078A8" fill-rule="nonzero" d="M15.5 13.5V12H5V3h1.5L4.25.75 2 3h1.5v1.5h-3V6h3v6c0 .825.675 1.5 1.5 1.5h6V15H9.5l2.25 2.25L14 15h-1.5v-1.5h3zM6.5 6H11v4.5h1.5V6c0-.825-.675-1.5-1.5-1.5H6.5V6z"/></g></symbol><symbol viewBox="0 0 12 17" id="icons--unlock" xmlns="http://www.w3.org/2000/svg"><g fill="none" fill-rule="evenodd"><path d="M-3 0h18v18H-3z"/><path fill="#0078A8" fill-rule="nonzero" d="M10.5 6h-.75V4.5C9.75 2.43 8.07.75 6 .75 3.93.75 2.25 2.43 2.25 4.5h1.5A2.247 2.247 0 0 1 6 2.25 2.247 2.247 0 0 1 8.25 4.5V6H1.5C.675 6 0 6.675 0 7.5V15c0 .825.675 1.5 1.5 1.5h9c.825 0 1.5-.675 1.5-1.5V7.5c0-.825-.675-1.5-1.5-1.5zm0 9h-9V7.5h9V15zM6 12.75c.825 0 1.5-.675 1.5-1.5s-.675-1.5-1.5-1.5-1.5.675-1.5 1.5.675 1.5 1.5 1.5z"/></g></symbol></svg>