<?xml version="1.0" encoding="utf-8"?><svg xmlns="http://www.w3.org/2000/svg" xmlns:xlink="http://www.w3.org/1999/xlink"><symbol viewBox="0 0 18 18" id="icons--border_clear" xmlns="http://www.w3.org/2000/svg"><path fill="#0078A8" d="M5.25 3.75h1.5v-1.5h-1.5v1.5zm0 6h1.5v-1.5h-1.5v1.5zm0 6h1.5v-1.5h-1.5v1.5zm3-3h1.5v-1.5h-1.5v1.5zm0 3h1.5v-1.5h-1.5v1.5zm-6 0h1.5v-1.5h-1.5v1.5zm0-3h1.5v-1.5h-1.5v1.5zm0-3h1.5v-1.5h-1.5v1.5zm0-3h1.5v-1.5h-1.5v1.5zm0-3h1.5v-1.5h-1.5v1.5zm6 6h1.5v-1.5h-1.5v1.5zm6 3h1.5v-1.5h-1.5v1.5zm0-3h1.5v-1.5h-1.5v1.5zm0 6h1.5v-1.5h-1.5v1.5zm0-9h1.5v-1.5h-1.5v1.5zm-6 0h1.5v-1.5h-1.5v1.5zm6-4.5v1.5h1.5v-1.5h-1.5zm-6 1.5h1.5v-1.5h-1.5v1.5zm3 12h1.5v-1.5h-1.5v1.5zm0-6h1.5v-1.5h-1.5v1.5zm0-6h1.5v-1.5h-1.5v1.5z"/></symbol><symbol viewBox="0 0 18 18" id="icons--border_outer" xmlns="http://www.w3.org/2000/svg"><path fill="#0078A8" d="M9.75 5.25h-1.5v1.5h1.5v-1.5zm0 3h-1.5v1.5h1.5v-1.5zm3 0h-1.5v1.5h1.5v-1.5zm-10.5-6v13.5h13.5V2.25H2.25zm12 12H3.75V3.75h10.5v10.5zm-4.5-3h-1.5v1.5h1.5v-1.5zm-3-3h-1.5v1.5h1.5v-1.5z"/></symbol><symbol viewBox="0 0 18 18" id="icons--crop_rotate" xmlns="http://www.w3.org/2000/svg"><path fill="#0078A8" d="M5.603 16.117C3.15 14.947 1.394 12.57 1.125 9.75H0C.383 14.37 4.245 18 8.963 18c.172 0 .33-.015.495-.023L6.6 15.113l-.997 1.005zM9.037 0c-.172 0-.33.015-.495.03L11.4 2.888l.998-.998a7.876 7.876 0 0 1 4.477 6.36H18C17.617 3.63 13.755 0 9.037 0zM12 10.5h1.5V6A1.5 1.5 0 0 0 12 4.5H7.5V6H12v4.5zM6 12V3H4.5v1.5H3V6h1.5v6A1.5 1.5 0 0 0 6 13.5h6V15h1.5v-1.5H15V12H6z"/></symbol><symbol viewBox="0 0 18 18" id="icons--delete_forever" xmlns="http://www.w3.org/2000/svg"><path fill="#c10d0d" d="M4.5 14.25c0 .825.675 1.5 1.5 1.5h6c.825 0 1.5-.675 1.5-1.5v-9h-9v9zm1.845-5.34l1.058-1.058L9 9.443l1.59-1.59 1.058 1.058-1.59 1.59 1.59 1.59-1.058 1.058L9 11.558l-1.59 1.59-1.058-1.058 1.59-1.59-1.597-1.59zM11.625 3l-.75-.75h-3.75l-.75.75H3.75v1.5h10.5V3h-2.625z"/></symbol><symbol viewBox="0 0 18 18" id="icons--explore" xmlns="http://www.w3.org/2000/svg"><path fill="#0078A8" d="M9 1.5C4.86 1.5 1.5 4.86 1.5 9c0 4.14 3.36 7.5 7.5 7.5 4.14 0 7.5-3.36 7.5-7.5 0-4.14-3.36-7.5-7.5-7.5zM9 15c-3.308 0-6-2.693-6-6 0-3.308 2.692-6 6-6 3.307 0 6 2.692 6 6 0 3.307-2.693 6-6 6zm-4.125-1.875l5.633-2.617 2.617-5.633-5.633 2.617-2.617 5.633zM9 8.175c.457 0 .825.367.825.825A.823.823 0 0 1 9 9.825.823.823 0 0 1 8.175 9c0-.457.367-.825.825-.825z"/></symbol><symbol viewBox="0 0 18 18" id="icons--flip_to_back" xmlns="http://www.w3.org/2000/svg"><path fill="#0078A8" d="M6.75 5.25h-1.5v1.5h1.5v-1.5zm0 3h-1.5v1.5h1.5v-1.5zm0-6a1.5 1.5 0 0 0-1.5 1.5h1.5v-1.5zm3 9h-1.5v1.5h1.5v-1.5zm4.5-9v1.5h1.5c0-.825-.675-1.5-1.5-1.5zm-4.5 0h-1.5v1.5h1.5v-1.5zm-3 10.5v-1.5h-1.5a1.5 1.5 0 0 0 1.5 1.5zm7.5-3h1.5v-1.5h-1.5v1.5zm0-3h1.5v-1.5h-1.5v1.5zm0 6c.825 0 1.5-.675 1.5-1.5h-1.5v1.5zm-10.5-7.5h-1.5v9a1.5 1.5 0 0 0 1.5 1.5h9v-1.5h-9v-9zm7.5-1.5h1.5v-1.5h-1.5v1.5zm0 9h1.5v-1.5h-1.5v1.5z"/></symbol><symbol viewBox="0 0 18 18" id="icons--flip_to_front" xmlns="http://www.w3.org/2000/svg"><path fill="#0078A8" d="M2.25 9.75h1.5v-1.5h-1.5v1.5zm0 3h1.5v-1.5h-1.5v1.5zm1.5 3v-1.5h-1.5a1.5 1.5 0 0 0 1.5 1.5zm-1.5-9h1.5v-1.5h-1.5v1.5zm9 9h1.5v-1.5h-1.5v1.5zm3-13.5h-7.5a1.5 1.5 0 0 0-1.5 1.5v7.5a1.5 1.5 0 0 0 1.5 1.5h7.5c.825 0 1.5-.675 1.5-1.5v-7.5c0-.825-.675-1.5-1.5-1.5zm0 9h-7.5v-7.5h7.5v7.5zm-6 4.5h1.5v-1.5h-1.5v1.5zm-3 0h1.5v-1.5h-1.5v1.5z"/></symbol><symbol viewBox="0 0 18 18" id="icons--get_app" xmlns="http://www.w3.org/2000/svg"><path fill="#0078A8" d="M14.25 6.75h-3v-4.5h-4.5v4.5h-3L9 12l5.25-5.25zM3.75 13.5V15h10.5v-1.5H3.75z"/></symbol><symbol viewBox="0 0 18 18" id="icons--lock" xmlns="http://www.w3.org/2000/svg"><path fill="#0078A8" d="M13.5 6h-.75V4.5C12.75 2.43 11.07.75 9 .75 6.93.75 5.25 2.43 5.25 4.5V6H4.5C3.675 6 3 6.675 3 7.5V15c0 .825.675 1.5 1.5 1.5h9c.825 0 1.5-.675 1.5-1.5V7.5c0-.825-.675-1.5-1.5-1.5zM6.75 4.5A2.247 2.247 0 0 1 9 2.25a2.247 2.247 0 0 1 2.25 2.25V6h-4.5V4.5zM13.5 15h-9V7.5h9V15zM9 12.75c.825 0 1.5-.675 1.5-1.5s-.675-1.5-1.5-1.5-1.5.675-1.5 1.5.675 1.5 1.5 1.5z"/></symbol><symbol viewBox="0 0 18 18" id="icons--opacity" xmlns="http://www.w3.org/2000/svg"><path fill="#0078A8" d="M13.245 6L9 1.763 4.755 6A6.015 6.015 0 0 0 3 10.23c0 1.5.585 3.082 1.755 4.252a5.993 5.993 0 0 0 8.49 0A6.066 6.066 0 0 0 15 10.23c0-1.5-.585-3.06-1.755-4.23zM4.5 10.5c.008-1.5.465-2.453 1.32-3.3L9 3.952l3.18 3.285c.855.84 1.313 1.763 1.32 3.263h-9z"/></symbol><symbol viewBox="0 0 18 18" id="icons--opacity-full" xmlns="http://www.w3.org/2000/svg"><path fill="#0078A8" d="M13.245 6A6.015 6.015 0 0 1 15 10.23c0 1.5-.585 3.082-1.755 4.252a5.993 5.993 0 0 1-8.49 0A6.066 6.066 0 0 1 3 10.23c0-1.5.585-3.06 1.755-4.23L9 1.763 13.245 6z"/></symbol><symbol viewBox="0 0 18 18" id="icons--restore" xmlns="http://www.w3.org/2000/svg"><path fill="#0078A8" d="M5.25 11.314l3.383 3.918a1.475 1.475 0 0 0 2.11.137c.322-.29.507-.706.507-1.145v-2.91l3.383 3.918a1.475 1.475 0 0 0 2.11.137c.323-.29.507-.706.507-1.145V3.775c0-.842-.67-1.525-1.495-1.525-.432.001-.842.19-1.123.518L11.25 6.686v-2.91c0-.844-.67-1.526-1.495-1.526-.432.001-.842.19-1.123.518L5.25 6.686V3.75a1.5 1.5 0 0 0-1.5-1.5h-1.5a1.5 1.5 0 0 0-1.5 1.5v10.5a1.5 1.5 0 0 0 1.5 1.5h1.5a1.5 1.5 0 0 0 1.5-1.5v-2.936zm0-2.32l4.505-5.219v10.45L5.25 9.005v-.01zm6 0l4.505-5.219v10.45l-4.505-5.22v-.01zm-9 5.256V3.75h1.5v10.5h-1.5z"/></symbol><symbol viewBox="0 0 18 18" id="icons--transform" xmlns="http://www.w3.org/2000/svg"><path fill="#0078A8" d="M16.5 13.5V12H6V3h1.5L5.25.75 3 3h1.5v1.5h-3V6h3v6c0 .825.675 1.5 1.5 1.5h6V15h-1.5l2.25 2.25L15 15h-1.5v-1.5h3zM7.5 6H12v4.5h1.5V6c0-.825-.675-1.5-1.5-1.5H7.5V6z"/></symbol><symbol viewBox="0 0 18 18" id="icons--unlock" xmlns="http://www.w3.org/2000/svg"><path fill="#0078A8" d="M13.5 6h-.75V4.5C12.75 2.43 11.07.75 9 .75 6.93.75 5.25 2.43 5.25 4.5h1.5A2.247 2.247 0 0 1 9 2.25a2.247 2.247 0 0 1 2.25 2.25V6H4.5C3.675 6 3 6.675 3 7.5V15c0 .825.675 1.5 1.5 1.5h9c.825 0 1.5-.675 1.5-1.5V7.5c0-.825-.675-1.5-1.5-1.5zm0 9h-9V7.5h9V15zM9 12.75c.825 0 1.5-.675 1.5-1.5s-.675-1.5-1.5-1.5-1.5.675-1.5 1.5.675 1.5 1.5 1.5z"/></symbol></svg>