<?xml version="1.0" encoding="UTF-8" standalone="no"?>
<svg
   xmlns:dc="http://purl.org/dc/elements/1.1/"
   xmlns:cc="http://creativecommons.org/ns#"
   xmlns:rdf="http://www.w3.org/1999/02/22-rdf-syntax-ns#"
   xmlns:svg="http://www.w3.org/2000/svg"
   xmlns="http://www.w3.org/2000/svg"
   xml:space="preserve"
   viewBox="0 0 99.999999 99.999999"
   y="0px"
   x="0px"
   version="1.1">
   <path
     d="m 94.96233,46.456833 -10.459052,0 C 82.584539,30.830053 70.050938,18.417118 54.294121,16.55715 l 0,-10.7702826 c -1.95e-4,-2.1917011 -1.777767,-3.9677111 -3.967906,-3.9677111 -2.191896,0 -3.967712,1.77601 -3.967712,3.9677111 l 0,10.7337706 C 30.469891,18.266383 17.801567,30.736528 15.869941,46.455272 l -10.1815984,0 c -2.191701,0 -3.967711,1.776009 -3.967711,3.967711 0,2.1917 1.77601,3.967711 3.967711,3.967711 l 10.1275144,0 c 1.755312,15.915556 14.512672,28.590324 30.542451,30.352081 l 0,10.317884 c 0,2.191896 1.776011,3.967711 3.967711,3.967711 2.190139,0 3.967711,-1.77601 3.967711,-3.967711 l 0,-10.352834 C 70.190348,82.831846 82.811031,70.215848 84.556973,54.392255 l 10.405161,0 c 2.191896,0 3.967711,-1.77601 3.967711,-3.967711 0,-2.1917 -1.775815,-3.967711 -3.967515,-3.967711 z m -40.668404,30.220287 0,-13.087335 c 0,-2.191897 -1.777572,-3.967712 -3.967711,-3.967712 -2.191896,0 -3.967712,1.77601 -3.967712,3.967712 l 0,13.128728 C 34.720132,75.048915 25.514792,65.921286 23.843632,54.392451 l 13.317538,0 c 2.191896,0 3.967711,-1.776011 3.967711,-3.967711 0,-2.191701 -1.77601,-3.967712 -3.967711,-3.967712 l -13.254081,0 C 25.738551,35.123445 34.861299,26.19751 46.358503,24.546852 l 0,12.712842 c 0,2.191897 1.776011,3.967711 3.967712,3.967711 2.190139,0 3.967711,-1.776009 3.967711,-3.967711 l 0,-12.671644 c 11.36541,1.753752 20.354801,10.625796 22.172009,21.868978 l -12.976237,0 c -2.191897,0 -3.967711,1.776011 -3.967711,3.967712 0,2.1917 1.77601,3.967711 3.967711,3.967711 l 13.041451,0 C 74.870923,65.830885 65.800503,74.901305 54.293926,76.67712 Z"
     style="fill:#000000;fill-opacity:1;stroke:#ffffff;stroke-width:2.9412632;stroke-linecap:round;stroke-miterlimit:4;stroke-dasharray:none;stroke-opacity:1" /></svg>
