<svg width="18" height="18" viewBox="0 0 18 18"><path d="M5.25 3.75h1.5v-1.5h-1.5v1.5zm0 6h1.5v-1.5h-1.5v1.5zm0 6h1.5v-1.5h-1.5v1.5zm3-3h1.5v-1.5h-1.5v1.5zm0 3h1.5v-1.5h-1.5v1.5zm-6 0h1.5v-1.5h-1.5v1.5zm0-3h1.5v-1.5h-1.5v1.5zm0-3h1.5v-1.5h-1.5v1.5zm0-3h1.5v-1.5h-1.5v1.5zm0-3h1.5v-1.5h-1.5v1.5zm6 6h1.5v-1.5h-1.5v1.5zm6 3h1.5v-1.5h-1.5v1.5zm0-3h1.5v-1.5h-1.5v1.5zm0 6h1.5v-1.5h-1.5v1.5zm0-9h1.5v-1.5h-1.5v1.5zm-6 0h1.5v-1.5h-1.5v1.5zm6-4.5v1.5h1.5v-1.5h-1.5zm-6 1.5h1.5v-1.5h-1.5v1.5zm3 12h1.5v-1.5h-1.5v1.5zm0-6h1.5v-1.5h-1.5v1.5zm0-6h1.5v-1.5h-1.5v1.5z"/></svg>