<svg xmlns="http://www.w3.org/2000/svg" width="21" height="19" viewBox="0 0 21 19"><g fill="none"><path fill="#000" d="M0 1.268L1.277 0 19 17.723 17.732 19l-3.002-3.002H3a2 2 0 0 1-2-2l.01-10a2 2 0 0 1 .45-1.27L0 1.268zm18 5.73v-2h-2v2h2zm0 3v-2h-2v2h2zm-3-3v-2h-2v2h2zm0 3v-2h-2v1.179l-2.18-2.179H12v-2h-2v1.179L8.82 4.998l-3-3H19a2 2 0 0 1 2 2v10a2 2 0 0 1-1.304 1.875l-5.875-5.875H15zm-8 2v2h5.73l-2-2H7zm-3-5h1.73L4 5.268v1.73zm2 3v-2H4v2h2zm1 0h1.73L7 8.268v1.73z"/><path d="M-1-3h24v24H-1z"/></g></svg>