<svg width="18" height="18" viewBox="0 0 18 18"><path d="M15.67 3.839a.295.295 0 00-.22.103l-5.116 3.249V4.179a.342.342 0 00-.193-.315.29.29 0 00-.338.078L3.806 7.751v-4.63h-.002l.002-.022c0-.277-.204-.502-.456-.502h-.873V2.6c-.253 0-.457.225-.457.503l.002.026v10.883h.005c.021.257.217.454.452.455l.016-.002h.822c.013.001.025.004.038.004.252 0 .457-.225.457-.502 0-.023-.003-.046-.006-.068V9.318l6.001 3.811a.288.288 0 00.332.074.34.34 0 00.194-.306V9.878l5.12 3.252a.288.288 0 00.332.073.34.34 0 00.194-.306V4.18a.358.358 0 00-.09-.24.296.296 0 00-.218-.1z"/></svg>