<svg width="18" height="18" viewBox="0 0 18 18"><path d="M9 6.48c-.216 0-.36-.144-.36-.36V3.24c0-.216.144-.36.36-.36s.36.144.36.36v2.88c0 .216-.144.36-.36.36z"/><path d="M9 15.12c-.216 0-.36-.144-.36-.36v-2.88c0-.216.144-.36.36-.36s.36.144.36.36v2.88c0 .216-.144.36-.36.36zm1.44-8.28c-.072 0-.108 0-.18-.036-.144-.108-.216-.288-.108-.468l1.44-2.484c.108-.144.288-.216.468-.108.144.108.216.288.108.468l-1.44 2.484c-.072.072-.18.144-.288.144zm-4.32 7.488c-.072 0-.108 0-.18-.036-.144-.108-.216-.288-.108-.468l1.44-2.484c.108-.144.288-.216.468-.108.144.108.216.288.108.468l-1.44 2.484c-.072.072-.18.144-.288.144z" opacity=".3"/><path d="M7.56 6.84c-.108 0-.216-.072-.288-.18l-1.44-2.484c-.108-.144-.036-.36.108-.468.144-.108.36-.036.468.108L7.848 6.3c.108.144.036.36-.108.468-.072.072-.108.072-.18.072z" opacity=".93"/><path d="M11.88 14.328c-.108 0-.216-.072-.288-.18l-1.44-2.484c-.108-.144-.036-.36.108-.468.144-.108.36-.036.468.108l1.44 2.484c.108.144.036.36-.108.468-.072.036-.108.072-.18.072z" opacity=".3"/><path d="M6.12 9.36H3.24c-.216 0-.36-.144-.36-.36s.144-.36.36-.36h2.88c.216 0 .36.144.36.36s-.144.36-.36.36z" opacity=".65"/><path d="M14.76 9.36h-2.88c-.216 0-.36-.144-.36-.36s.144-.36.36-.36h2.88c.216 0 .36.144.36.36s-.144.36-.36.36z" opacity=".3"/><path d="M6.516 7.884c-.072 0-.108 0-.18-.036l-2.484-1.44c-.144-.108-.216-.288-.108-.468.108-.144.288-.216.468-.108l2.484 1.44c.144.108.216.288.108.468a.327.327 0 01-.288.144z" opacity=".86"/><path d="M14.004 12.204c-.072 0-.108 0-.18-.036l-2.484-1.44c-.144-.108-.216-.288-.108-.468.108-.144.288-.216.468-.108l2.484 1.44c.144.108.216.288.108.468a.327.327 0 01-.288.144z" opacity=".3"/><path d="M3.996 12.204c-.108 0-.216-.072-.288-.18-.108-.144-.036-.36.108-.468l2.484-1.44c.144-.108.36-.036.468.108.108.144.036.36-.108.468l-2.484 1.44c-.036.072-.108.072-.18.072z" opacity=".44"/><path d="M11.484 7.884c-.108 0-.216-.072-.288-.18-.108-.144-.036-.36.108-.468l2.484-1.44c.144-.108.36-.036.468.108.108.144.036.36-.108.468l-2.484 1.44c-.072.072-.108.072-.18.072z" opacity=".3"/></svg>