<svg xmlns="http://www.w3.org/2000/svg" width="18" height="18" viewBox="0 0 18 18">
  <path d="M5.25,3.75 L6.75,3.75 L6.75,2.25 L5.25,2.25 L5.25,3.75 Z M5.25,9.75 L6.75,9.75 L6.75,8.25 L5.25,8.25 L5.25,9.75 Z M5.25,15.75 L6.75,15.75 L6.75,14.25 L5.25,14.25 L5.25,15.75 Z M8.25,12.75 L9.75,12.75 L9.75,11.25 L8.25,11.25 L8.25,12.75 Z M8.25,15.75 L9.75,15.75 L9.75,14.25 L8.25,14.25 L8.25,15.75 Z M2.25,15.75 L3.75,15.75 L3.75,14.25 L2.25,14.25 L2.25,15.75 Z M2.25,12.75 L3.75,12.75 L3.75,11.25 L2.25,11.25 L2.25,12.75 Z M2.25,9.75 L3.75,9.75 L3.75,8.25 L2.25,8.25 L2.25,9.75 Z M2.25,6.75 L3.75,6.75 L3.75,5.25 L2.25,5.25 L2.25,6.75 Z M2.25,3.75 L3.75,3.75 L3.75,2.25 L2.25,2.25 L2.25,3.75 Z M8.25,9.75 L9.75,9.75 L9.75,8.25 L8.25,8.25 L8.25,9.75 Z M14.25,12.75 L15.75,12.75 L15.75,11.25 L14.25,11.25 L14.25,12.75 Z M14.25,9.75 L15.75,9.75 L15.75,8.25 L14.25,8.25 L14.25,9.75 Z M14.25,15.75 L15.75,15.75 L15.75,14.25 L14.25,14.25 L14.25,15.75 Z M14.25,6.75 L15.75,6.75 L15.75,5.25 L14.25,5.25 L14.25,6.75 Z M8.25,6.75 L9.75,6.75 L9.75,5.25 L8.25,5.25 L8.25,6.75 Z M14.25,2.25 L14.25,3.75 L15.75,3.75 L15.75,2.25 L14.25,2.25 Z M8.25,3.75 L9.75,3.75 L9.75,2.25 L8.25,2.25 L8.25,3.75 Z M11.25,15.75 L12.75,15.75 L12.75,14.25 L11.25,14.25 L11.25,15.75 Z M11.25,9.75 L12.75,9.75 L12.75,8.25 L11.25,8.25 L11.25,9.75 Z M11.25,3.75 L12.75,3.75 L12.75,2.25 L11.25,2.25 L11.25,3.75 Z"/>
</svg>
