<svg xmlns="http://www.w3.org/2000/svg" width="18" height="18" viewBox="0 0 18 18">
  <path d="M5.6025,16.1175 C3.15,14.9475 1.395,12.57 1.125,9.75 L0,9.75 C0.3825,14.37 4.245,18 8.9625,18 C9.135,18 9.2925,17.985 9.4575,17.9775 L6.6,15.1125 L5.6025,16.1175 Z M9.0375,0 C8.865,0 8.7075,0.015 8.5425,0.03 L11.4,2.8875 L12.3975,1.89 C14.85,3.0525 16.605,5.43 16.875,8.25 L18,8.25 C17.6175,3.63 13.755,0 9.0375,0 Z M12,10.5 L13.5,10.5 L13.5,6 C13.5,5.1675 12.825,4.5 12,4.5 L7.5,4.5 L7.5,6 L12,6 L12,10.5 Z M6,12 L6,3 L4.5,3 L4.5,4.5 L3,4.5 L3,6 L4.5,6 L4.5,12 C4.5,12.825 5.1675,13.5 6,13.5 L12,13.5 L12,15 L13.5,15 L13.5,13.5 L15,13.5 L15,12 L6,12 Z"/>
</svg>
