<svg xmlns="http://www.w3.org/2000/svg" width="18" height="18" viewBox="0 0 18 18">
  <path d="M 0.6 0 L 4.9 0 L 4.9 1.4 L 10.7 1.4 L 10.7 0 L 15 0 L 15 4.3 L 13.6 4.3 L 13.6 10.1 L 15 10.1 L 15 14.5 L 10.7 14.5 L 10.7 13 L 4.9 13 L 4.9 14.5 L 0.6 14.5 L 0.6 10.1 L 2 10.1 L 2 4.3 L 0.6 4.3 L 0.6 0 Z M 10.7 4.3 L 10.7 2.9 L 4.9 2.9 L 4.9 4.3 L 3.5 4.3 L 3.5 10.1 L 4.9 10.1 L 4.9 11.6 L 10.7 11.6 L 10.7 10.1 L 12.1 10.1 L 12.1 4.3 L 10.7 4.3 Z M 2 1.4 L 2 2.9 L 3.5 2.9 L 3.5 1.4 L 2 1.4 Z M 12.1 1.4 L 12.1 2.9 L 13.6 2.9 L 13.6 1.4 L 12.1 1.4 Z M 2 11.6 L 2 13 L 3.5 13 L 3.5 11.6 L 2 11.6 Z M 12.1 11.6 L 12.1 13 L 13.6 13 L 13.6 11.6 L 12.1 11.6 Z" transform="translate(1.1,1.4)"/>
</svg>
