<svg xmlns="http://www.w3.org/2000/svg" width="18" height="18" viewBox="0 0 18 18">
	<path d="M2.3 16.5c-0.2 0-0.4-0.1-0.5-0.2 -0.2-0.2-0.3-0.5-0.2-0.8l2.5-6.5 -2.5-6.5C1.5 2.3 1.5 2 1.7 1.8c0.2-0.2 0.5-0.3 0.8-0.2l6.5 2.5 6.5-2.5c0.3-0.1 0.6 0 0.8 0.2 0.2 0.2 0.3 0.5 0.2 0.8l-2.5 6.5 2.5 6.5c0.1 0.3 0 0.6-0.2 0.8 -0.2 0.2-0.5 0.3-0.8 0.2l-6.5-2.5 -6.5 2.5C2.4 16.5 2.3 16.5 2.3 16.5zM3.6 3.6l2 5.1c0.1 0.2 0.1 0.4 0 0.5l-2 5.1 5.1-2c0.2-0.1 0.4-0.1 0.5 0l5.1 2L12.4 9.3c-0.1-0.2-0.1-0.4 0-0.5l2-5.1L9.3 5.6c-0.2 0.1-0.4 0.1-0.5 0L3.6 3.6z"/>
</svg>
