<svg xmlns="http://www.w3.org/2000/svg" width="18" height="18" viewBox="0 0 18 18">
  <path d="M9,1.5 C4.86,1.5 1.5,4.86 1.5,9 C1.5,13.14 4.86,16.5 9,16.5 C13.14,16.5 16.5,13.14 16.5,9 C16.5,4.86 13.14,1.5 9,1.5 Z M9,15 C5.6925,15 3,12.3075 3,9 C3,5.6925 5.6925,3 9,3 C12.3075,3 15,5.6925 15,9 C15,12.3075 12.3075,15 9,15 Z M4.875,13.125 L10.5075,10.5075 L13.125,4.875 L7.4925,7.4925 L4.875,13.125 Z M9,8.175 C9.4575,8.175 9.825,8.5425 9.825,9 C9.825,9.4575 9.4575,9.825 9,9.825 C8.5425,9.825 8.175,9.4575 8.175,9 C8.175,8.5425 8.5425,8.175 9,8.175 Z"/>
</svg>
