<svg xmlns="http://www.w3.org/2000/svg" width="25" height="20" viewBox="0 0 25 25">
  <path fill="#000000" d="M 12 23 L 16 19 L 8 19 L 12 23 Z M 19 8 L 17 8 L 17 6 L 19 6 L 19 8 Z M 19 11 L 17 11 L 17 9 L 19 9 L 19 11 Z M 16 8 L 14 8 L 14 6 L 16 6 L 16 8 Z M 16 11 L 14 11 L 14 9 L 16 9 L 16 11 Z M 16 15 L 8 15 L 8 13 L 16 13 L 16 15 Z M 7 8 L 5 8 L 5 6 L 7 6 L 7 8 Z M 7 11 L 5 11 L 5 9 L 7 9 L 7 11 Z M 8 9 L 10 9 L 10 11 L 8 11 L 8 9 Z M 8 6 L 10 6 L 10 8 L 8 8 L 8 6 Z M 11 9 L 13 9 L 13 11 L 11 11 L 11 9 Z M 11 6 L 13 6 L 13 8 L 11 8 L 11 6 Z M 20 3 L 4 3 C 2.9 3 2 3.9 2 5 L 2 15 C 2 16.1 2.9 17 4 17 L 20 17 C 21.1 17 22 16.1 22 15 L 22 5 C 22 3.9 21.1 3 20 3 Z"/>
</svg>
