<svg xmlns="http://www.w3.org/2000/svg" width="21" height="19" viewBox="0 0 21 19">
  <g fill="none" transform="translate(-1 -3)">
    <path fill="#000" d="M1,4.268 L2.277,3 L20,20.723 L18.732,22 L15.73,18.998 L4,18.998 C2.8954305,18.998 2,18.1025695 2,16.998 L2.01,6.998 C2.00859675,6.53536144 2.16762641,6.0865444 2.46,5.728 L1,4.268 Z M19,9.998 L19,7.998 L17,7.998 L17,9.998 L19,9.998 Z M19,12.998 L19,10.998 L17,10.998 L17,12.998 L19,12.998 Z M16,9.998 L16,7.998 L14,7.998 L14,9.998 L16,9.998 Z M16,12.998 L16,10.998 L14,10.998 L14,12.177 L11.82,9.998 L13,9.998 L13,7.998 L11,7.998 L11,9.177 L9.82,7.998 L6.82,4.998 L20,4.998 C21.1045695,4.998 22,5.8934305 22,6.998 L22,16.998 C22,17.858 21.457,18.59 20.696,18.873 L14.821,12.998 L15.999,12.998 L16,12.998 Z M8,14.998 L8,16.998 L13.73,16.998 L11.73,14.998 L8,14.998 Z M5,9.998 L6.73,9.998 L5,8.268 L5,9.998 Z M7,12.998 L7,10.998 L5,10.998 L5,12.998 L7,12.998 Z M8,12.998 L9.73,12.998 L8,11.268 L8,12.998 Z"/>
    <rect width="24" height="24"/>
  </g>
</svg>
