<svg xmlns="http://www.w3.org/2000/svg" width="14" height="18" viewBox="0 0 14 18">
  <path stroke="#0078A8" stroke-width="2" d="M10.245,5 C11.415,6.17 12,7.73 12,9.23 C12,10.73 11.415,12.3125 10.245,13.4825 C9.075,14.6525 7.5375,15.245 6,15.245 C4.4625,15.245 2.925,14.6525 1.755,13.4825 C0.585,12.3125 0,10.73 0,9.23 C0,7.73 0.585,6.17 1.755,5 L6,0.7625 L10.245,5 Z M10.245,5 L6,0.7625 L1.755,5 C0.585,6.17 0,7.73 0,9.23 C0,10.73 0.585,12.3125 1.755,13.4825 C2.925,14.6525 4.4625,15.245 6,15.245 C7.5375,15.245 9.075,14.6525 10.245,13.4825 C11.415,12.3125 12,10.73 12,9.23 C12,7.73 11.415,6.17 10.245,5 Z" transform="translate(2 2) scale(0.85 0.85)"/>
</svg>
