<svg xmlns="http://www.w3.org/2000/svg" width="14" height="18" viewBox="0 0 14 18">
	<g fill="#0078a8"><path d="m2.1 10.85c.2.98.68 1.89 1.39 2.61 0 0 .01.01.01.01.99.99 2.3 1.49 3.6 1.49h.01c1.3 0 2.6-.5 3.59-1.5.73-.73 1.19-1.66 1.39-2.61z" opacity=".75"/><path d="m2 9.85c0 .34.04.68.1 1.01h9.99c.07-.34.11-.67.11-1.01 0-1.13-.4-2.21-1.08-3.09h-8.04c-.7.91-1.08 2.01-1.08 3.09z" opacity=".5"/><path d="m3.08 6.75h8.03c-.13-.17-.26-.35-.41-.5l-3.6-3.6-3.61 3.6c-.15.16-.27.33-.41.5z" opacity=".25"/></g><path d="m10.71 6.25c.95.96 1.49 2.25 1.49 3.6 0 1.27-.5 2.62-1.49 3.61-1.99 1.99-5.21 2-7.2.01 0 0-.01-.01-.01-.01-.96-.96-1.5-2.26-1.5-3.61 0-1.27.5-2.6 1.49-3.6l3.61-3.6z" fill="none" stroke="#0078a8" stroke-width=".1"/><path d="m10.71 6.25c.95.96 1.49 2.25 1.49 3.6 0 1.27-.5 2.62-1.49 3.61-1.99 1.99-5.21 2-7.2.01 0 0-.01-.01-.01-.01-.96-.96-1.5-2.26-1.5-3.61 0-1.27.5-2.6 1.49-3.6l3.61-3.6z" fill="none" stroke="#0078a8" stroke-width="1.7"/>
</svg>