<svg xmlns="http://www.w3.org/2000/svg" width="18" height="18" viewBox="0 0 18 18">
  <path d="M13.6708,1.39904667 C13.58386,1.39904667 13.50556,1.43504667 13.4494,1.49282667 L8.3338,4.44626667 L8.3338,1.70828667 C8.33362258,1.58258172 8.25736916,1.46949273 8.140899,1.42220142 C8.02442885,1.37491012 7.89092122,1.40282815 7.80316,1.49282667 L1.80592,4.95548667 L1.80592,0.746726667 L1.80358,0.746726667 C1.80394,0.739706667 1.80574,0.733226667 1.80574,0.726206667 C1.80564124,0.474421636 1.60176456,0.270222873 1.34998,0.269726667 L0.47662,0.269726667 L0.47662,0.274046667 C0.224413646,0.274046667 0.01996,0.478500313 0.01996,0.730706667 C0.01996,0.738806667 0.02194,0.746186667 0.0223,0.754286667 L0.0223,10.6483467 L0.02662,10.6483467 C0.0482519317,10.8821482 0.244160368,11.0611398 0.47896,11.0616267 C0.48436,11.0616267 0.4894,11.0601867 0.49462,11.0600067 L1.31704,11.0600067 C1.32982,11.0610867 1.34224,11.0637867 1.35538,11.0637867 C1.60738,11.0637867 1.81204,10.8593067 1.81204,10.6071267 C1.81204,10.5860667 1.80862,10.5657267 1.80574,10.5453867 L1.80574,6.37982667 L7.80712,9.84482667 C7.89457613,9.93127819 8.02500195,9.95757663 8.13912583,9.91177074 C8.25324971,9.86596486 8.32930162,9.75679248 8.33272,9.63386667 L8.33362,9.63386667 L8.33362,6.88904667 L13.45336,9.84500667 C13.5408161,9.93145819 13.6712419,9.95775663 13.7853658,9.91195074 C13.8994897,9.86614486 13.9755416,9.75697248 13.97896,9.63404667 L13.9798601,9.63404667 L13.9798601,1.70828667 C13.9798601,1.62628768 13.9473673,1.5476308 13.8894021,1.48963188 C13.8314369,1.43163295 13.752799,1.39904665 13.6708,1.39904667 Z" transform="translate(2 2.3) scale(1 1.1)"/>
</svg>
