<svg xmlns="http://www.w3.org/2000/svg" width="18" height="18" viewBox="0 0 18 18">
  <path d="M5.505,4.8075 L0.645,9.675 L5.5125,14.535 L10.38,9.675 L5.505,4.8075 Z M2.7675,9.675 L5.5125,6.93 L8.25,9.675 L5.505,12.42 L2.7675,9.675 L2.7675,9.675 Z M14.52,4.98 C13.2576951,3.71025825 11.5404332,2.99743257 9.75,3 L9.75,0.57 L6.57,3.75 L9.75,6.93 L9.75,4.5 C11.0925,4.5 12.435,5.01 13.4625,6.0375 C15.51011,8.08899426 15.51011,11.4110057 13.4625,13.4625 C11.9284444,15.0012294 9.60276014,15.4311377 7.62,14.5425 L6.5025,15.66 C7.515,16.215 8.6325,16.5 9.75,16.5 C11.475,16.5 13.2075,15.84 14.52,14.52 C15.7877352,13.2563268 16.5002839,11.5399783 16.5002839,9.75 C16.5002839,7.96002165 15.7877352,6.24367318 14.52,4.98 Z"/>
</svg>
