<svg xmlns="http://www.w3.org/2000/svg" width="18" height="18" viewBox="0 0 18 18">
  <path fill="#000" d="M6.75,7.5 L0.75,7.5 C0.335786438,7.5 0,7.83578644 0,8.25 L0,14.25 C0,14.6642136 0.335786438,15 0.75,15 L6.75,15 C7.16421356,15 7.5,14.6642136 7.5,14.25 L7.5,8.25 C7.5,7.83578644 7.16421356,7.5 6.75,7.5 Z M6,13.5 L1.5,13.5 L1.5,9 L6,9 L6,13.5 Z M14.94,0.465 C14.8638938,0.281738011 14.718262,0.136106191 14.535,0.06 C14.4448333,0.021569269 14.3480079,0.00118499056 14.25,0 L9.75,0 C9.33578644,0 9,0.335786438 9,0.75 C9,1.16421356 9.33578644,1.5 9.75,1.5 L12.4425,1.5 L8.4675,5.4675 C8.32551551,5.60832495 8.24565126,5.80002185 8.24565126,6 C8.24565126,6.19997815 8.32551551,6.39167505 8.4675,6.5325 C8.60832495,6.67448449 8.80002185,6.75434874 9,6.75434874 C9.19997815,6.75434874 9.39167505,6.67448449 9.5325,6.5325 L13.5,2.5575 L13.5,5.25 C13.5,5.66421356 13.8357864,6 14.25,6 C14.6642136,6 15,5.66421356 15,5.25 L15,0.75 C14.998815,0.651992057 14.9784307,0.555166734 14.94,0.465 Z" transform="translate(1.5 1.5)"/>
</svg>
