<svg xmlns="http://www.w3.org/2000/svg" width="18" height="18" viewBox="0 0 18 18">
  <path d="M9,6.48 C8.784,6.48 8.64,6.336 8.64,6.12 L8.64,3.24 C8.64,3.024 8.784,2.88 9,2.88 C9.216,2.88 9.36,3.024 9.36,3.24 L9.36,6.12 C9.36,6.336 9.216,6.48 9,6.48 Z"/>
  <path d="M9 15.12C8.784 15.12 8.64 14.976 8.64 14.76L8.64 11.88C8.64 11.664 8.784 11.52 9 11.52 9.216 11.52 9.36 11.664 9.36 11.88L9.36 14.76C9.36 14.976 9.216 15.12 9 15.12zM10.44 6.84C10.368 6.84 10.332 6.84 10.26 6.804 10.116 6.696 10.044 6.516 10.152 6.336L11.592 3.852C11.7 3.708 11.88 3.636 12.06 3.744 12.204 3.852 12.276 4.032 12.168 4.212L10.728 6.696C10.656 6.768 10.548 6.84 10.44 6.84L10.44 6.84zM6.12 14.328C6.048 14.328 6.012 14.328 5.94 14.292 5.796 14.184 5.724 14.004 5.832 13.824L7.272 11.34C7.38 11.196 7.56 11.124 7.74 11.232 7.884 11.34 7.956 11.52 7.848 11.7L6.408 14.184C6.336 14.256 6.228 14.328 6.12 14.328z" opacity=".3"/>
  <path d="M7.56,6.84 C7.452,6.84 7.344,6.768 7.272,6.66 L5.832,4.176 C5.724,4.032 5.796,3.816 5.94,3.708 C6.084,3.6 6.3,3.672 6.408,3.816 L7.848,6.3 C7.956,6.444 7.884,6.66 7.74,6.768 C7.668,6.84 7.632,6.84 7.56,6.84 Z" opacity=".93"/>
  <path d="M11.88,14.328 C11.772,14.328 11.664,14.256 11.592,14.148 L10.152,11.664 C10.044,11.52 10.116,11.304 10.26,11.196 C10.404,11.088 10.62,11.16 10.728,11.304 L12.168,13.788 C12.276,13.932 12.204,14.148 12.06,14.256 C11.988,14.292 11.952,14.328 11.88,14.328 L11.88,14.328 Z" opacity=".3"/>
  <path d="M6.12,9.36 L3.24,9.36 C3.024,9.36 2.88,9.216 2.88,9 C2.88,8.784 3.024,8.64 3.24,8.64 L6.12,8.64 C6.336,8.64 6.48,8.784 6.48,9 C6.48,9.216 6.336,9.36 6.12,9.36 Z" opacity=".65"/>
  <path d="M14.76,9.36 L11.88,9.36 C11.664,9.36 11.52,9.216 11.52,9 C11.52,8.784 11.664,8.64 11.88,8.64 L14.76,8.64 C14.976,8.64 15.12,8.784 15.12,9 C15.12,9.216 14.976,9.36 14.76,9.36 Z" opacity=".3"/>
  <path d="M6.516,7.884 C6.444,7.884 6.408,7.884 6.336,7.848 L3.852,6.408 C3.708,6.3 3.636,6.12 3.744,5.94 C3.852,5.796 4.032,5.724 4.212,5.832 L6.696,7.272 C6.84,7.38 6.912,7.56 6.804,7.74 C6.732,7.848 6.624,7.884 6.516,7.884 L6.516,7.884 Z" opacity=".86"/>
  <path d="M14.004,12.204 C13.932,12.204 13.896,12.204 13.824,12.168 L11.34,10.728 C11.196,10.62 11.124,10.44 11.232,10.26 C11.34,10.116 11.52,10.044 11.7,10.152 L14.184,11.592 C14.328,11.7 14.4,11.88 14.292,12.06 C14.22,12.168 14.112,12.204 14.004,12.204 L14.004,12.204 Z" opacity=".3"/>
  <path d="M3.996,12.204 C3.888,12.204 3.78,12.132 3.708,12.024 C3.6,11.88 3.672,11.664 3.816,11.556 L6.3,10.116 C6.444,10.008 6.66,10.08 6.768,10.224 C6.876,10.368 6.804,10.584 6.66,10.692 L4.176,12.132 C4.14,12.204 4.068,12.204 3.996,12.204 L3.996,12.204 Z" opacity=".44"/>
  <path d="M11.484,7.884 C11.376,7.884 11.268,7.812 11.196,7.704 C11.088,7.56 11.16,7.344 11.304,7.236 L13.788,5.796 C13.932,5.688 14.148,5.76 14.256,5.904 C14.364,6.048 14.292,6.264 14.148,6.372 L11.664,7.812 C11.592,7.884 11.556,7.884 11.484,7.884 Z" opacity=".3"/>
</svg>
