<svg xmlns="http://www.w3.org/2000/svg" width="18" height="18" viewBox="0 0 18 18">
  <path d="M13.5,6 L12.75,6 L12.75,4.5 C12.75,2.43 11.07,0.75 9,0.75 C6.93,0.75 5.25,2.43 5.25,4.5 L6.75,4.5 C6.75,3.255 7.755,2.25 9,2.25 C10.245,2.25 11.25,3.255 11.25,4.5 L11.25,6 L4.5,6 C3.675,6 3,6.675 3,7.5 L3,15 C3,15.825 3.675,16.5 4.5,16.5 L13.5,16.5 C14.325,16.5 15,15.825 15,15 L15,7.5 C15,6.675 14.325,6 13.5,6 Z M13.5,15 L4.5,15 L4.5,7.5 L13.5,7.5 L13.5,15 Z M9,12.75 C9.825,12.75 10.5,12.075 10.5,11.25 C10.5,10.425 9.825,9.75 9,9.75 C8.175,9.75 7.5,10.425 7.5,11.25 C7.5,12.075 8.175,12.75 9,12.75 Z"/>
</svg>
