<svg enable-background="new 0 0 141.7 141.7" height="141.7" viewBox="0 0 141.7 141.7" width="141.7" xmlns="http://www.w3.org/2000/svg"><path d="m50 99.4c-1.3 0-2.6 0-3.9 0s-2.5.3-3.8.5c-2.5.3-5.1.2-7.7.2s-5.2-.1-7.8-.2c-2.5-.1-5.1-.3-7.6-.9-2.4-.6-4.7-1.5-6.9-2.5-2.1-1-4.2-2.1-5.9-3.7-3.1-3-4.6-7.3-5.4-11.5-.9-5-1-10.1-.6-15.2.3-4.7 1.1-9.6 3.5-13.8 1.1-2 2.7-3.7 4.6-4.9 1.9-1.3 4.1-2.3 6.3-3.1 2.3-.9 4.7-1.6 7.2-1.9s5.1-.4 7.7-.5 5.2-.2 7.9-.2c1.3 0 2.6 0 3.9.1s2.5.4 3.8.5c1.6.1 3.3 0 5 0h1.2.8c.2-.3.4-.5.5-.7.2-.3.4-.6.6-.8.8-.9 2.2-1.8 3.5-1.8.6 0 .7.5.5 1-.4.9-.5 1.1-1 2.3 10.6 0 21.2-.1 31.8-.2 2.6 0 5.3-.1 7.9-.1s5.3 0 7.9-.2c2.6-.3 5.3-.1 7.9.1 2.6.1 5.2.3 7.9.4 2.6.2 5.2.4 7.8.8 1.2.2 2.5.3 3.6.8.6.2 1.1.5 1.7.7s1.2.5 1.8.8c1.9 1 3.6 2.4 4.6 4.4 1.1 2.1 1.4 4.5 1.7 6.8.8 5.2 1.1 10.4 1 15.6s-.4 10.3-1.4 15.4c-.4 2.2-.9 4.4-2.4 6.1-1.4 1.7-3.4 2.7-5.4 3.6-1.1.5-2.3 1-3.5 1.2-1.3.2-2.5.4-3.8.5-2.6.3-5.2.5-7.9.7-2.6.2-5.2.3-7.9.3-1.3 0-2.6.1-3.9 0-1.3 0-2.6-.2-3.9-.2-5.3-.2-10.6-.1-15.8-.2-9.9-.1-19.7-.1-29.6-.2l.7 1.7c.2.4.5 1.1.4 1.4-.3.6-1.6.1-2-.1-1-.4-2-1.2-2.6-2.1-.2-.3-.4-.6-.5-.9z"/><g fill="#fff"><path d="m18.7 44.3c-3.5 5.4-8.3 9.8-13.7 13.1 0 0 0 0-.1 0 2-6.6 6.9-12 13.8-13.1z"/><path d="m18.7 97.2c-3.5-5.4-8.3-9.8-13.7-13.1 1.8 6.5 6.8 12 13.7 13.1z"/><path d="m125.1 52.9c1.7-.1 3.4-.1 5 .1.8.1 1.5.1 2 .7.5.7.7 1.5 1 2.3 1.1 3.2 1.5 6.7 1.7 10.1.2 3.5.2 7-.1 10.5-.3 3.4-.8 6.8-2 10.1-.2.6-.6 1.4-1.3 1.6s-1.6.2-2.4.2-1.7 0-2.5 0c-.4 0-.9 0-1.3-.1-.3 0-.8-.1-1.1-.3-.7-.5-.4-1.6-.2-2.3.2-.8.4-1.6.6-2.5.4-1.6.5-3.2.8-4.8.7-3.3 1.1-6.7.8-10-.1-1.7-.3-3.3-.7-5-.3-1.6-.6-3.2-.8-4.8-.2-1.2-.6-2.3-.8-3.4-.1-.6-.3-1.2-.1-1.8.2-.5.9-.5 1.4-.6z"/><path d="m33.2 70.7c0 5.2.4 10.4 1.4 15.4.5 2.5 1.1 5 2 7.4.1.2.1.5.2.7.1.1.3 0 .4 0 .6-.2 1.1-.3 1.7-.4 1.3-.3 2.6-.6 3.8-.8 6.5-1.4 13-2.7 19.6-3.7-.3-1.2-.5-2.5-.6-3.7-.1-1.3-.3-2.6-.4-3.9-.3-2.6-.4-5.2-.5-7.9-.2-5.2.2-10.5.7-15.7.1-1 .2-2 .4-3 .1-1 .2-2 .5-3-5.2-.8-10.4-1.8-15.5-2.8-2.5-.5-5.1-1.1-7.6-1.7-.6-.1-1.2-.3-1.8-.4-.1 0-.6-.2-.6-.1-.1.1-.1.3-.2.5-.3 1-.7 2.1-1 3.1-1.9 6.5-2.5 13.3-2.5 20z"/><path d="m110.8 46.4c.4 0 .8 0 1.1.1.4 0 .7.2 1 .3.8.2 1.5.6 2.2 1 .3.1.7.3.8.6s-.1.4-.3.5c-.8.2-1.7.3-2.5.4-1.6.2-3.3.4-4.9.6.3-.9.6-1.8.9-2.7 0-.1.2-.8.3-.8z"/><path d="m110.8 95c.4 0 .8 0 1.2-.1s.7-.2 1.1-.3c.8-.3 1.5-.6 2.2-1 .3-.2.6-.4.8-.6.2-.3-.2-.4-.4-.5-.8-.2-1.6-.3-2.5-.4-1.6-.2-3.3-.4-4.9-.6.3.9.6 1.8.9 2.7 0 .1.2.8.3.8.4.1.8.1 1.3 0z"/><path d="m41.6 44.9.3.1.5.1.4.1.4.1 1.8.5.5.1.5.1.5.2.5.1.6.1.5.1.6.2 1.3.2-.9-1.9z"/><path d="m41.6 96.6.3-.1.5-.1.4-.1.4-.2.4-.1.4-.1.5-.1.5-.1.5-.1.5-.2.5-.1.5-.1.6-.1.5-.2.6-.1.6-.1h.1.1v-.1h.1.1.1.1v-.1h.1l-.9 2z"/><path d="m83.8 45.7c.1.9.2 1.8.3 2.7.1.6.1 1.1.2 1.7 0 .2 0 .5.1.7s.2.2.4.2h1.3 2.6c3.6 0 7.1-.2 10.6-.4 1.7-.1 3.4-.2 5.2-.4.4 0 .9-.1 1.3-.1.2 0 .3 0 .4-.2s.1-.4.2-.6c.2-.8.4-1.5.6-2.3 0-.2.2-.7-.1-.7-.5 0-.9 0-1.4 0-2-.1-4.1-.1-6.1-.2-4.7-.1-9.3-.3-14-.4-.5 0-1.1 0-1.6 0z"/><path d="m50.6 45c.2.7.4 1.5.8 2.1.1.2.5.2.7.3.4.1.8.2 1.3.3 1.8.3 3.6.7 5.4 1 3.4.5 6.9 1 10.3 1.3 3.5.3 6.9.6 10.4.8.1 0 1.9.3 1.6-.2-.4-.7-.6-1.6-.9-2.3-.3-.9-.6-1.7-1-2.6 0 0-.6 0-.7 0-4-.1-8-.2-12-.3-4.6-.1-9.2-.2-13.8-.3-.6-.1-1.3-.1-2.1-.1z"/><path d="m107 95.2c.1-.5-.1-1-.2-1.5-.1-.4-.2-.8-.3-1.2 0-.1-.2-1.1-.3-1.1-1.7-.1-3.4-.3-5.2-.4-3.5-.2-7-.4-10.5-.5-1.7 0-3.5-.1-5.2 0-.2 0-.6-.1-.8.1-.1.1-.1.3-.1.5-.1 1.1-.3 2.3-.4 3.4-.1.4-.1.9-.2 1.3l10.2-.3c4.2-.1 8.4-.2 12.6-.3z"/><path d="m50.6 96.5c.2-.5.3-.9.5-1.4.1-.3.2-.6.4-.8s.4-.2.7-.3c.4-.1.8-.2 1.3-.3 1.8-.4 3.6-.7 5.4-1 3.4-.6 6.9-.9 10.3-1.3 3.5-.3 6.9-.6 10.4-.8.5 0 .9-.1 1.4-.1.2 0 .3.1.2.3 0 .2-.2.5-.3.7-.2.6-.4 1.1-.6 1.7s-.4 1.1-.6 1.7c-.1.1-.2.7-.3.8s-.6 0-.7 0c-4 .1-8 .2-12.1.3-4.6.1-9.2.2-13.8.3-.7.2-1.4.2-2.2.2z"/><path d="m137.5 62.4c.3.3.6.2.6-.2.1-.4 0-.9 0-1.4-.1-1-.3-2.1-.5-3.1-.4-2-.9-3.9-1.7-5.7-.7-1.6-1.7-3.2-2.9-4.5s-3-2.7-4.9-2.1c.3.1.5.3.8.5.4.2.7.5 1.1.7.7.5 1.3 1.1 1.9 1.7 1.1 1.2 2.1 2.5 2.7 4 .7 1.6 1.2 3.3 1.6 5 .2.9.4 1.8.6 2.7.2.7.2 1.7.7 2.4"/><path d="m128.2 96c1.8-1 3.4-2.4 4.6-4 1.4-1.8 2.3-3.8 2.9-6 .3-1.2.7-2.4.9-3.6.2-1 .3-2.3.8-3.2.3-.4.7-.4.7.1.1.5 0 1 0 1.5-.1 1.2-.4 2.5-.6 3.7-.6 2.7-1.5 5.4-3.2 7.7-.8 1-1.6 2.1-2.6 2.9s-2.4 1.4-3.7 1c.1-.1.1-.1.2-.1 2.9-1.7-.1 0 0 0z"/></g></svg>