<?xml version="1.0" encoding="utf-8"?>
<!-- Generator: Adobe Illustrator 25.4.1, SVG Export Plug-In . SVG Version: 6.00 Build 0)  -->
<svg version="1.1" id="opacity_empty" xmlns="http://www.w3.org/2000/svg" xmlns:xlink="http://www.w3.org/1999/xlink" x="0px"
	 y="0px" viewBox="0 0 14 18" style="enable-background:new 0 0 14 18;" xml:space="preserve">
<style type="text/css">
	.st0{opacity:0.75;fill:#0678A8;}
	.st1{opacity:0.5;fill:#0678A8;}
	.st2{opacity:0.25;fill:#0678A8;}
	.st3{fill:none;stroke:#0078A8;stroke-width:0.1;}
	.st4{fill:none;stroke:#0078A8;stroke-width:1.7;}
</style>
<path class="st0" d="M2.1,10.85c0.2,0.98,0.68,1.89,1.39,2.61c0,0,0.01,0.01,0.01,0.01c0.99,0.99,2.3,1.49,3.6,1.49h0.01
	c1.3,0,2.6-0.5,3.59-1.5c0.73-0.73,1.19-1.66,1.39-2.61H2.1z"/>
<path class="st1" d="M2,9.85c0,0.34,0.04,0.68,0.1,1.01h9.99c0.07-0.34,0.11-0.67,0.11-1.01c0-1.13-0.4-2.21-1.08-3.09H3.08
	C2.38,7.67,2,8.77,2,9.85z"/>
<path class="st2" d="M3.08,6.75h8.03c-0.13-0.17-0.26-0.35-0.41-0.5L7.1,2.65l-3.61,3.6C3.34,6.41,3.22,6.58,3.08,6.75z"/>
<path class="st3" d="M10.71,6.25c0.95,0.96,1.49,2.25,1.49,3.6c0,1.27-0.5,2.62-1.49,3.61c-1.99,1.99-5.21,2-7.2,0.01
	c0,0-0.01-0.01-0.01-0.01C2.54,12.5,2,11.2,2,9.85c0-1.27,0.5-2.6,1.49-3.6l3.61-3.6L10.71,6.25z"/>
<path class="st4" d="M10.71,6.25c0.95,0.96,1.49,2.25,1.49,3.6c0,1.27-0.5,2.62-1.49,3.61c-1.99,1.99-5.21,2-7.2,0.01
	c0,0-0.01-0.01-0.01-0.01C2.54,12.5,2,11.2,2,9.85c0-1.27,0.5-2.6,1.49-3.6l3.61-3.6L10.71,6.25z"/>
</svg>
