<svg xmlns="http://www.w3.org/2000/svg" width="12" height="16" viewBox="0 0 12 16">
  <g fill="none" fill-rule="evenodd" transform="translate(-3 -1)">
    <path d="M18,0 L0,0 L0,18 L18,18 L18,0 Z M18,0 L0,0 L0,18 L18,18 L18,0 Z M0,18 L18,18 L18,0 L0,0 L0,18 Z"/>
    <path fill="#0078A8" fill-rule="nonzero" d="M13.245,6 L9,1.7625 L4.755,6 C3.585,7.17 3,8.73 3,10.23 C3,11.73 3.585,13.3125 4.755,14.4825 C5.925,15.6525 7.4625,16.245 9,16.245 C10.5375,16.245 12.075,15.6525 13.245,14.4825 C14.415,13.3125 15,11.73 15,10.23 C15,8.73 14.415,7.17 13.245,6 Z M4.5,10.5 C4.5075,9 4.965,8.0475 5.82,7.2 L9,3.9525 L12.18,7.2375 C13.035,8.0775 13.4925,9 13.5,10.5 L4.5,10.5 Z"/>
  </g>
</svg>
