<svg xmlns="http://www.w3.org/2000/svg" width="18" height="18" viewBox="0 0 18 18">
  <path fill="#0078A8" d="M4.5,4.43625 L7.8825,0.5175 C8.14111846,0.214469986 8.51135111,0.0289835146 8.90890559,0.00327103572 C9.30646007,-0.0224414432 9.69750153,0.113808394 9.993,0.381 C10.3155,0.6705 10.5,1.0875 10.5,1.5255 L10.5,4.4355 L13.8825,0.5175 C14.1411185,0.214469986 14.5113511,0.0289835146 14.9089056,0.00327103572 C15.3064601,-0.0224414432 15.6975015,0.113808394 15.993,0.381 C16.3155,0.6705 16.5,1.0875 16.5,1.5255 L16.5,11.9745 C16.5,12.81675 15.83025,13.5 15.0045,13.5 C14.5730183,13.4989688 14.1633883,13.3100352 13.8825,12.9825 L10.5,9.06375 L10.5,11.97375 C10.5,12.8175 9.83025,13.5 9.0045,13.5 C8.57301827,13.4989688 8.16338829,13.3100352 7.8825,12.9825 L4.5,9.06375 L4.5,12 C4.5,12.8284271 3.82842712,13.5 3,13.5 L1.5,13.5 C0.671572875,13.5 0,12.8284271 0,12 L0,1.5 C0,0.671572875 0.671572875,0 1.5,0 L3,0 C3.82842712,0 4.5,0.671572875 4.5,1.5 L4.5,4.43625 Z M4.5,6.75525 L9.0045,11.9745 L9.0045,1.5255 L4.5,6.74475 L4.5,6.75525 Z M10.5,6.75525 L15.0045,11.9745 L15.0045,1.5255 L10.5,6.74475 L10.5,6.75525 Z M1.5,1.5 L1.5,12 L3,12 L3,1.5 L1.5,1.5 Z" transform="matrix(1 0 0 -1 .75 15.75)"/>
</svg>
